<?xml version="1.0" standalone="no"?>
<!DOCTYPE svg PUBLIC "-//W3C//DTD SVG 20010904//EN"
 "http://www.w3.org/TR/2001/REC-SVG-20010904/DTD/svg10.dtd">
<svg version="1.0" xmlns="http://www.w3.org/2000/svg"
 width="260.000000pt" height="260.000000pt" viewBox="0 0 260.000000 260.000000"
 preserveAspectRatio="xMidYMid meet">
<metadata>
Created by potrace 1.14, written by Peter Selinger 2001-2017
</metadata>
<g transform="translate(0.000000,260.000000) scale(0.100000,-0.100000)"
fill="#000000" stroke="none">
<path d="M835 2025 c3 -11 3 -16 -1 -13 -11 12 -44 -12 -54 -38 -5 -13 -13
-24 -17 -23 -21 4 -33 -3 -33 -17 0 -10 -6 -14 -14 -11 -9 4 -17 -2 -21 -14
-4 -10 -15 -19 -26 -19 -10 0 -18 -6 -16 -12 1 -7 -4 -12 -12 -10 -9 2 -11 -3
-7 -13 3 -9 2 -13 -4 -10 -6 3 -10 1 -10 -4 0 -6 -6 -10 -12 -8 -7 1 -12 -3
-11 -9 1 -7 -9 -15 -23 -18 -14 -4 -22 -11 -19 -16 3 -6 -1 -10 -9 -10 -9 0
-16 -8 -16 -17 0 -15 -2 -16 -10 -3 -6 10 -10 11 -10 3 0 -18 -32 -53 -42 -47
-4 3 -8 0 -8 -6 0 -6 -4 -8 -10 -5 -6 3 -7 -1 -4 -10 4 -9 3 -15 -2 -14 -22 4
-34 -2 -34 -18 0 -9 -3 -13 -7 -10 -3 4 -12 -2 -20 -13 -8 -11 -24 -20 -36
-20 -16 0 -19 -3 -8 -9 11 -7 9 -10 -8 -16 -19 -6 -20 -9 -9 -23 10 -12 10
-14 0 -8 -7 4 -22 4 -33 1 -17 -6 -19 -9 -8 -16 10 -6 8 -9 -8 -9 -14 0 -23
-6 -23 -15 0 -14 -12 -19 -33 -16 -4 0 -7 -6 -7 -16 0 -9 -3 -13 -6 -10 -4 4
-18 -6 -30 -21 -22 -25 -24 -35 -24 -155 0 -122 1 -129 24 -152 13 -13 27 -21
30 -18 3 4 6 -1 6 -10 0 -9 3 -16 7 -16 5 1 15 1 23 0 13 -1 13 -2 0 -11 -13
-8 -12 -10 3 -10 10 0 20 -7 23 -15 4 -8 15 -15 25 -15 12 0 19 -7 19 -19 0
-14 6 -19 20 -16 13 3 20 -2 20 -12 0 -8 9 -17 20 -20 11 -3 20 -11 20 -19 0
-7 6 -11 14 -8 8 3 17 0 22 -7 4 -8 3 -10 -4 -5 -7 4 -12 3 -12 -3 0 -6 11
-13 25 -17 14 -3 23 -10 20 -14 -3 -5 4 -11 15 -15 11 -3 20 -11 20 -16 0 -6
4 -7 10 -4 6 3 10 1 10 -5 0 -6 5 -8 10 -5 6 3 10 2 10 -4 0 -5 -6 -12 -12
-14 -7 -3 -3 -6 8 -6 12 -1 24 -8 28 -16 3 -8 12 -15 21 -15 8 0 15 -7 15 -15
0 -8 5 -16 10 -16 6 -1 15 -2 20 -3 6 0 10 -5 11 -11 0 -5 9 -13 20 -17 11 -4
17 -12 14 -18 -3 -6 3 -10 15 -10 17 0 21 -4 16 -17 -5 -15 -3 -14 10 2 16 20
16 20 9 -2 -5 -19 -2 -23 15 -23 12 0 19 -4 16 -9 -3 -5 4 -11 15 -14 13 -4
18 -10 13 -18 -4 -8 -3 -10 4 -5 7 4 12 3 12 -2 0 -6 6 -12 14 -15 11 -5 14
17 14 119 l-1 124 -28 17 c-16 10 -29 23 -29 30 0 12 -13 17 -33 14 -5 -1 -11
8 -14 20 -4 14 -11 19 -24 16 -11 -3 -17 -1 -13 4 7 11 -46 60 -57 53 -5 -3
-9 0 -9 5 0 6 6 11 13 11 6 0 4 5 -6 11 -9 5 -21 8 -26 5 -5 -3 -11 3 -14 14
-3 13 -14 20 -28 20 -22 0 -22 1 -4 14 20 14 49 11 39 -5 -5 -8 18 -14 40 -10
5 1 6 -5 3 -13 -4 -9 3 -16 19 -20 14 -4 22 -11 19 -16 -3 -6 1 -10 9 -10 9 0
16 -5 16 -11 0 -5 5 -7 10 -4 6 4 9 1 8 -7 -2 -7 5 -12 14 -12 10 1 16 -2 13
-6 -2 -4 5 -16 17 -26 14 -12 19 -14 13 -4 -8 15 -7 14 51 -38 20 -19 47 -16
45 4 -1 5 4 10 9 10 6 1 14 2 20 3 5 0 9 7 7 14 -1 7 7 12 20 11 17 0 20 3 12
12 -7 9 -5 14 10 19 12 3 21 14 21 23 0 13 2 14 8 4 6 -9 12 -5 22 13 8 14 22
25 34 25 16 0 18 2 7 9 -11 7 -9 10 8 16 11 3 21 13 21 21 0 8 5 12 10 9 6 -3
10 0 10 7 0 9 3 9 10 -2 8 -13 10 -12 10 3 0 11 9 21 20 24 16 4 18 8 9 19
-10 12 -8 13 6 7 15 -5 17 -3 12 11 -4 10 -7 20 -7 22 0 2 -7 4 -15 4 -18 0
-52 33 -48 46 2 5 -6 10 -18 11 -12 1 -27 7 -33 14 -8 9 -8 10 1 5 6 -3 14 -2
17 3 4 5 -1 8 -9 7 -9 -1 -15 -5 -15 -9 0 -4 -5 -14 -12 -21 -10 -10 -15 -11
-20 -2 -5 6 -8 1 -8 -12 0 -13 -4 -20 -10 -17 -5 3 -10 1 -10 -5 0 -6 -12 -15
-26 -20 -14 -6 -22 -15 -19 -20 4 -6 3 -10 -2 -9 -14 3 -43 -13 -38 -21 8 -12
-35 -20 -58 -10 -12 5 -17 9 -12 10 6 1 -3 8 -20 15 -16 8 -24 14 -17 15 21 0
3 20 -19 20 -11 0 -18 4 -15 9 3 5 -4 11 -15 14 -12 3 -18 10 -14 16 3 6 2 11
-3 11 -14 0 -57 41 -54 52 1 5 -2 7 -8 3 -5 -3 -10 -1 -10 5 0 6 -4 8 -10 5
-5 -3 -10 1 -10 10 0 9 -4 13 -10 10 -5 -3 -10 -2 -10 2 0 5 -7 18 -16 29 -8
10 -12 13 -9 6 6 -11 3 -11 -13 -1 -14 9 -18 17 -11 25 7 8 3 11 -13 10 -13 0
-23 5 -23 12 0 7 -6 17 -14 21 -11 7 -10 11 6 20 11 5 24 7 28 3 4 -4 5 2 3
13 -2 13 3 20 14 20 9 0 20 4 24 8 4 4 1 7 -7 7 -7 0 -2 8 11 17 14 9 30 24
37 33 6 8 17 15 25 15 7 1 11 7 10 15 -2 8 0 12 4 8 4 -4 13 0 19 9 11 14 16
15 28 5 11 -9 17 -10 22 -2 4 6 2 9 -3 8 -10 -3 -12 1 -12 22 0 14 26 12 38
-3 8 -10 6 -16 -9 -25 -11 -7 -17 -17 -14 -21 3 -5 -6 -8 -19 -7 -14 2 -25 0
-24 -3 2 -18 -3 -33 -9 -28 -3 4 -13 -2 -21 -14 -8 -11 -20 -18 -28 -15 -8 3
-11 0 -7 -10 3 -9 -1 -14 -12 -14 -11 0 -15 -5 -11 -16 3 -8 2 -12 -3 -9 -5 3
-12 1 -16 -5 -4 -6 -10 -8 -15 -5 -4 3 -11 -2 -14 -11 -3 -8 -2 -12 4 -9 6 3
10 -1 10 -10 0 -10 5 -13 12 -9 7 5 8 3 4 -5 -5 -8 0 -14 13 -18 11 -3 19 -9
16 -13 -3 -5 4 -11 15 -15 11 -4 18 -10 15 -15 -7 -11 39 -22 59 -14 9 3 13
11 9 17 -4 6 0 8 11 4 10 -4 15 -3 11 3 -3 6 0 10 7 10 7 0 24 14 37 30 13 17
30 30 38 30 8 0 12 4 8 9 -3 5 -1 12 5 16 5 3 10 11 10 16 0 6 -5 7 -11 3 -8
-5 -8 -1 0 14 14 27 14 35 -1 26 -7 -5 -8 -3 -3 5 13 23 15 82 2 74 -9 -5 -9
-3 -1 8 7 8 11 27 9 42 -4 34 -15 49 -15 21 0 -16 -2 -17 -10 -4 -8 13 -10 13
-10 -1 0 -24 -31 -33 -49 -14 -11 10 -12 15 -3 16 7 1 17 3 22 4 6 1 13 3 18
4 4 1 1 5 -5 9 -9 6 -1 16 26 33 21 13 37 27 35 30 -2 4 5 9 17 12 14 4 22 0
27 -13 7 -18 10 -20 32 -20 5 0 6 -7 3 -17 -4 -10 -2 -14 5 -9 6 3 17 -3 25
-14 7 -11 17 -17 20 -13 4 3 7 1 7 -6 0 -7 5 -9 12 -5 7 4 8 3 4 -5 -4 -6 0
-14 11 -18 19 -6 53 -38 53 -48 0 -3 -5 -3 -12 1 -7 4 -8 3 -4 -5 6 -9 11 -9
24 1 12 10 14 10 8 1 -4 -8 -2 -13 4 -13 6 0 8 -5 4 -12 -4 -6 -3 -8 4 -4 6 3
20 -5 31 -20 11 -14 25 -23 31 -19 6 3 10 -3 10 -14 0 -12 3 -20 8 -20 19 3
33 -2 27 -11 -3 -6 4 -14 17 -19 25 -9 57 -41 42 -41 -5 0 2 -6 16 -13 14 -8
24 -18 23 -24 -1 -6 6 -9 17 -6 15 4 18 1 15 -16 -2 -12 0 -19 5 -16 12 8 41
-6 34 -16 -3 -5 2 -9 10 -9 9 0 16 -7 16 -17 0 -9 3 -14 6 -10 3 3 23 -12 45
-34 21 -21 46 -39 55 -39 10 0 14 -3 10 -7 -3 -4 6 -13 21 -20 16 -7 19 -11 8
-8 -20 5 -20 5 -1 -10 11 -8 24 -15 29 -15 4 0 5 -4 2 -10 -3 -5 3 -10 14 -10
11 0 22 -9 26 -20 3 -11 15 -20 26 -20 11 0 19 -7 19 -16 0 -8 4 -13 9 -10 5
3 11 -3 14 -14 3 -11 12 -20 21 -20 9 0 16 -7 16 -16 0 -8 5 -12 10 -9 6 3 10
1 10 -5 0 -6 4 -8 10 -5 6 4 7 -1 3 -11 -4 -12 -3 -15 5 -10 7 4 15 1 18 -8 3
-9 13 -16 20 -16 8 0 18 -9 22 -21 5 -11 11 -20 15 -20 25 3 31 0 17 -9 -15
-10 -10 -12 25 -12 29 0 38 2 32 9 -4 4 6 12 23 19 17 8 30 21 30 31 0 15 2
16 10 3 8 -13 10 -13 10 1 0 18 22 30 43 25 6 -1 9 -1 5 1 -14 8 -8 22 12 28
11 3 20 12 20 20 0 16 32 13 38 -3 2 -7 -6 -12 -17 -12 -12 0 -21 -6 -21 -13
0 -22 -46 -57 -58 -45 -8 8 -9 4 -5 -13 3 -13 3 -21 -2 -17 -4 4 -18 -4 -32
-18 -13 -13 -29 -22 -34 -19 -5 4 -9 0 -9 -9 0 -8 -5 -16 -12 -18 -8 -3 -11
-42 -10 -133 1 -70 5 -131 8 -134 3 -3 10 2 15 12 6 9 17 17 24 17 8 0 15 7
15 15 0 8 9 15 20 15 11 0 20 7 20 15 0 8 4 15 8 15 14 0 52 36 52 49 0 6 3
10 8 10 20 -3 32 3 32 17 0 8 4 13 9 10 5 -3 14 0 20 8 9 11 9 15 -1 20 -9 4
-9 5 2 5 8 -1 24 -1 35 0 16 1 17 3 6 10 -12 8 -9 11 12 16 15 4 24 11 21 17
-3 5 3 12 15 15 11 3 18 9 15 14 -3 5 2 9 10 9 8 0 17 9 21 19 4 13 13 18 30
16 13 -1 22 1 20 6 -3 4 7 20 21 36 15 15 24 21 19 13 -5 -8 4 -3 20 13 15 15
32 27 37 27 6 0 7 7 4 16 -3 8 -2 12 4 9 5 -3 18 3 30 15 11 11 23 20 28 20 4
0 20 14 34 30 15 17 31 32 35 33 4 1 7 5 5 10 -1 4 2 7 7 7 8 0 8 194 1 210
-1 3 -1 10 0 15 11 50 10 54 -6 48 -10 -4 -15 -2 -11 4 6 10 -17 34 -52 53
-12 6 -21 17 -21 25 0 8 -6 14 -12 12 -7 -1 -12 5 -10 13 2 8 0 12 -3 8 -10
-10 -47 11 -40 23 4 5 -3 9 -14 9 -12 0 -21 6 -21 13 0 8 -11 19 -25 25 -14 6
-25 16 -25 22 0 5 -3 9 -7 9 -20 -3 -26 2 -13 11 13 8 13 10 -2 10 -9 0 -24 8
-34 18 -10 9 -21 17 -25 17 -4 0 -11 4 -16 9 -5 5 -3 6 5 2 6 -4 12 -2 12 3 0
6 -4 12 -10 12 -5 1 -16 2 -22 3 -7 1 -12 7 -11 14 2 7 -4 12 -13 12 -9 0 -12
5 -8 12 4 7 3 8 -4 4 -6 -4 -19 5 -28 19 -9 14 -25 25 -35 25 -10 0 -21 5 -25
12 -4 7 -3 8 4 4 7 -4 12 -2 12 3 0 6 -9 11 -20 11 -11 0 -20 7 -20 15 0 14
-12 19 -32 16 -5 0 -8 5 -8 13 0 8 -9 18 -20 21 -11 3 -20 10 -20 15 0 5 -10
12 -21 15 -15 5 -18 9 -9 15 8 5 3 10 -14 14 -15 4 -24 11 -21 16 10 16 -45
16 -55 0 -3 -4 -15 -12 -28 -19 -12 -7 -20 -16 -17 -22 4 -5 3 -9 -2 -8 -21 4
-33 -2 -33 -16 0 -8 -9 -15 -20 -15 -11 0 -20 -7 -20 -15 0 -8 -7 -15 -16 -15
-8 0 -12 -4 -9 -10 6 -10 -9 -15 -30 -10 -5 1 -7 -1 -3 -5 8 -9 -16 -35 -31
-35 -6 0 -11 -7 -11 -16 0 -10 -6 -14 -15 -11 -8 4 -17 2 -20 -3 -3 -4 1 -10
7 -13 7 -2 0 -8 -15 -12 -18 -5 -26 -12 -23 -21 3 -8 0 -11 -9 -8 -7 3 -16 -3
-20 -15 -3 -11 -9 -20 -13 -20 -20 3 -32 -2 -27 -11 3 -5 -1 -10 -9 -10 -8 0
-17 -9 -21 -20 -3 -11 -9 -19 -13 -19 -22 4 -33 -3 -29 -15 4 -11 1 -13 -11
-9 -9 3 -14 3 -10 -2 4 -4 3 -14 -4 -22 -6 -8 -7 -13 -2 -12 22 4 44 -2 44
-12 0 -5 -5 -7 -12 -3 -7 4 -8 3 -4 -4 4 -7 16 -12 27 -12 11 0 17 -4 14 -10
-6 -9 8 -14 28 -11 4 0 7 -8 7 -19 0 -12 6 -20 13 -19 33 4 46 -2 41 -18 -4
-14 -2 -13 7 2 17 28 50 56 59 50 4 -3 10 5 13 16 3 12 10 18 16 14 6 -3 11
-1 11 5 0 6 11 16 25 22 14 6 25 17 25 24 0 10 19 12 40 4 3 -1 8 -2 12 -1 4
0 5 -6 2 -13 -3 -8 -14 -13 -24 -11 -14 3 -18 -1 -15 -16 3 -12 0 -17 -7 -13
-6 4 -20 -4 -30 -17 -11 -13 -17 -17 -13 -9 4 8 -3 4 -16 -10 -12 -14 -25 -24
-30 -23 -5 2 -13 -6 -19 -17 -6 -11 -15 -18 -19 -15 -5 3 -12 -2 -15 -11 -4
-10 -2 -13 6 -8 7 5 9 0 6 -14 -4 -15 -2 -19 8 -15 8 3 14 0 14 -6 0 -6 7 -11
15 -11 9 0 12 -6 8 -15 -3 -9 -2 -15 3 -14 22 4 34 -2 34 -17 0 -8 5 -12 10
-9 6 3 10 2 10 -4 0 -6 11 -5 30 2 20 7 25 14 17 19 -7 5 0 10 21 14 21 4 29
10 21 14 -8 5 -5 10 10 15 11 3 21 13 21 21 0 8 3 13 8 13 4 -1 14 -1 22 0 13
1 13 2 0 11 -12 8 -11 10 8 10 21 0 22 3 22 108 0 91 -2 109 -15 109 -9 0 -14
-6 -11 -14 3 -7 2 -12 -2 -12 -19 3 -52 -15 -52 -27 0 -9 -8 -13 -22 -11 -25
4 -37 27 -14 27 9 0 16 5 16 11 0 5 5 7 12 3 7 -5 9 -2 5 8 -4 12 -1 14 13 11
10 -3 21 1 25 8 6 8 4 10 -6 4 -12 -7 -12 -6 -1 7 7 9 22 14 35 11 17 -4 19
-3 7 6 -8 5 -11 13 -7 17 10 11 57 11 57 1 0 -13 27 -37 34 -30 3 4 6 -1 6
-11 0 -9 4 -14 10 -11 5 3 15 -3 22 -15 7 -11 17 -20 23 -20 5 0 23 -14 39
-30 16 -17 33 -30 38 -30 4 0 8 -7 8 -15 0 -8 3 -14 8 -14 4 1 14 1 22 0 13
-1 13 -2 0 -11 -14 -9 -12 -11 20 -14 8 0 14 -7 13 -13 -2 -7 3 -13 11 -13 8
0 21 -8 28 -19 13 -18 18 -21 41 -21 8 0 7 -4 -3 -10 -8 -5 -15 -17 -15 -27 0
-10 -6 -19 -13 -19 -6 -1 -17 -2 -23 -3 -5 0 -7 -6 -4 -11 3 -6 -3 -14 -14
-18 -11 -4 -21 -11 -23 -17 -2 -5 -7 -9 -11 -7 -5 1 -11 -7 -14 -18 -3 -11 -9
-17 -14 -14 -5 3 -9 0 -9 -6 0 -6 -4 -8 -10 -5 -5 3 -10 -1 -10 -9 0 -9 -7
-16 -16 -16 -8 0 -12 -4 -9 -10 3 -5 2 -10 -4 -10 -5 0 -24 -15 -43 -32 -35
-35 -40 -38 -60 -38 -9 0 -8 -4 2 -10 13 -9 13 -10 0 -11 -8 -1 -18 -1 -22 0
-5 0 -8 -4 -8 -9 0 -6 -9 -21 -21 -33 -15 -17 -19 -18 -14 -4 5 12 2 17 -9 17
-9 0 -16 7 -16 15 0 8 -3 14 -7 14 -21 -3 -33 2 -33 16 0 8 -9 15 -20 15 -11
0 -19 6 -17 13 1 6 -4 11 -10 10 -7 -2 -13 3 -13 11 0 8 -9 18 -20 21 -11 3
-20 13 -20 22 0 9 -6 13 -14 10 -9 -4 -17 2 -21 14 -4 10 -11 17 -16 14 -5 -4
-9 1 -9 9 0 8 -9 18 -20 21 -11 3 -20 13 -20 21 0 8 -4 13 -9 10 -11 -7 -53
29 -44 38 3 3 -1 6 -10 6 -9 0 -17 5 -17 10 0 6 -7 10 -15 10 -8 0 -15 7 -15
16 0 8 -4 13 -9 9 -5 -3 -12 4 -16 15 -3 11 -12 19 -18 17 -7 -1 -11 8 -9 23
2 20 0 22 -8 10 -9 -13 -13 -12 -30 8 -10 13 -23 22 -27 21 -4 -1 -13 7 -18
18 -6 11 -16 18 -24 15 -8 -3 -11 0 -7 7 4 6 1 11 -8 11 -8 0 -18 5 -22 12 -5
7 -3 8 6 3 9 -5 11 -4 6 3 -4 7 -16 12 -27 12 -10 0 -18 3 -18 8 3 20 -2 31
-15 26 -8 -3 -17 0 -22 7 -4 8 -3 10 4 5 7 -4 12 -5 12 -1 0 3 -11 10 -25 15
-14 5 -25 14 -25 20 0 6 5 8 12 4 7 -4 8 -3 4 4 -4 6 -13 9 -21 5 -10 -3 -15
1 -15 13 0 11 -3 15 -8 8 -4 -6 -13 -4 -24 7 -12 13 -13 19 -5 23 7 2 4 5 -5
5 -10 1 -18 7 -18 14 0 8 -4 7 -10 -3 -8 -13 -10 -12 -10 3 0 16 -12 22 -34
18 -5 -1 -4 5 4 13 10 14 9 16 -8 16 -11 0 -22 8 -25 20 -3 12 -11 18 -20 15
-9 -4 -20 6 -30 27 -13 25 -17 28 -18 13 0 -14 -2 -16 -6 -5 -8 20 -35 46 -55
53 -12 4 -15 12 -11 23 4 12 3 15 -6 10 -7 -5 -19 0 -27 10 -15 18 -15 18 -9
-1z m-588 -650 c0 -8 -4 -12 -9 -9 -5 3 -6 10 -3 15 9 13 12 11 12 -6z m43
-29 c0 -2 -7 -7 -16 -10 -8 -3 -12 -2 -9 4 6 10 25 14 25 6z m36 -43 c-6 -6
-36 9 -36 18 0 5 9 4 20 -3 10 -7 18 -14 16 -15z m38 -21 c2 -4 -4 -9 -15 -9
-10 -1 -19 2 -19 8 0 11 27 12 34 1z m1966 -2 c0 -5 -5 -10 -11 -10 -5 0 -7 5
-4 10 3 6 8 10 11 10 2 0 4 -4 4 -10z m-1924 -38 c3 -25 5 -27 14 -12 8 13 10
12 10 -2 0 -10 6 -18 13 -18 7 0 20 -9 30 -20 9 -11 24 -20 32 -20 9 0 13 -4
10 -10 -10 -16 -45 -12 -45 5 0 9 -9 15 -22 15 -18 0 -20 2 -9 9 12 8 9 11
-12 16 -25 7 -32 16 -28 39 1 5 -5 6 -14 3 -8 -4 -15 -2 -15 4 0 15 35 6 36
-9z m1904 9 c0 -6 -4 -12 -8 -15 -5 -3 -9 1 -9 9 0 8 4 15 9 15 4 0 8 -4 8 -9z
m-36 -26 c-7 -16 -24 -21 -24 -6 0 8 7 13 27 20 1 1 0 -6 -3 -14z m-48 -49
c-26 -26 -56 -40 -56 -27 0 13 26 32 33 24 4 -3 9 2 13 11 3 9 12 16 20 16 8
0 4 -9 -10 -24z m-1679 -46 c1 -11 -2 -20 -8 -20 -5 0 -9 5 -9 11 0 5 -4 7
-10 4 -5 -3 -10 1 -10 9 0 24 35 20 37 -4z m1620 -12 c-6 -4 -17 -2 -25 4 -10
9 -10 13 -1 19 7 4 18 2 24 -4 9 -9 10 -14 2 -19z m-27 -19 c0 -6 -9 -9 -19
-6 -15 4 -19 0 -16 -14 2 -11 0 -17 -5 -14 -4 3 -11 -1 -13 -7 -4 -10 -8 -9
-16 2 -7 11 -7 16 2 19 7 2 16 10 20 17 10 17 47 19 47 3z"/>
<path d="M853 1655 c3 -22 1 -35 -7 -35 -7 0 -8 -3 0 -8 5 -4 10 -33 9 -66 -1
-36 4 -63 12 -71 7 -8 13 -19 13 -25 0 -6 5 -8 10 -5 6 3 10 -1 10 -10 0 -9 4
-14 8 -11 5 3 16 -6 26 -20 11 -13 25 -24 32 -24 8 0 14 -7 14 -17 0 -9 3 -14
6 -10 4 3 15 -4 25 -16 10 -12 18 -19 19 -15 0 3 17 -10 38 -30 21 -20 37 -40
35 -44 -9 -17 9 -29 23 -17 11 9 14 8 14 -5 0 -15 12 -21 34 -17 5 1 6 -5 3
-14 -4 -9 -1 -15 8 -15 8 0 19 -9 25 -20 6 -11 16 -17 26 -13 8 3 14 2 13 -3
-4 -21 2 -34 15 -34 8 0 16 -7 20 -15 3 -8 11 -14 18 -13 7 2 12 -2 11 -9 -2
-6 6 -15 17 -18 11 -4 18 -10 15 -15 -3 -5 4 -11 15 -15 11 -3 29 -18 41 -33
11 -15 26 -27 32 -27 7 -1 11 -6 10 -13 -2 -7 2 -13 7 -13 6 -1 14 -2 19 -3 5
0 13 -5 18 -10 5 -5 3 -6 -4 -2 -7 4 -13 2 -13 -3 0 -6 9 -11 19 -11 24 0 36
-16 19 -23 -7 -3 -4 -6 7 -6 11 -1 28 -10 38 -21 10 -12 23 -18 30 -14 8 5 7
2 -2 -9 -12 -15 -11 -17 8 -17 12 0 21 -6 21 -15 0 -8 7 -15 15 -15 8 0 20 -9
27 -20 7 -11 19 -20 26 -20 7 0 10 -4 7 -10 -3 -5 1 -10 9 -10 9 0 16 -7 16
-16 0 -8 4 -13 8 -10 5 3 19 -6 31 -20 13 -15 27 -22 34 -17 7 4 6 0 -2 -11
-8 -9 -10 -16 -5 -15 21 4 34 -2 34 -16 0 -8 8 -15 18 -15 14 0 15 2 2 10 -12
8 -12 10 5 11 11 0 14 3 8 6 -7 2 -13 9 -13 14 0 6 4 8 8 5 5 -3 9 1 9 9 0 8
-4 12 -9 9 -4 -3 -8 -1 -8 5 0 5 6 12 13 14 10 4 10 6 0 6 -7 1 -13 6 -13 12
0 5 4 8 8 5 5 -3 9 1 9 9 0 8 -4 12 -9 9 -13 -8 -10 10 5 25 10 11 10 13 0 7
-7 -4 -13 -2 -13 3 0 6 6 11 13 11 9 0 8 3 -2 9 -11 7 -11 9 0 14 10 4 10 6 2
6 -8 1 -13 15 -13 36 0 19 -3 34 -7 34 -5 -1 -15 -1 -23 0 -13 1 -13 2 0 11
10 7 11 10 3 11 -7 1 -17 3 -23 4 -5 1 -16 3 -22 4 -10 1 -9 4 1 10 11 7 8 11
-10 17 -13 4 -28 7 -33 5 -5 -1 -3 6 5 15 8 10 9 15 3 11 -7 -4 -14 0 -18 8
-3 8 -12 15 -21 15 -8 0 -15 5 -15 11 0 5 -4 7 -10 4 -5 -3 -10 1 -10 9 0 9
-7 16 -16 16 -8 0 -12 5 -9 10 3 6 -1 10 -9 10 -9 0 -16 5 -16 11 0 5 -4 7
-10 4 -5 -3 -10 1 -10 9 0 9 -7 16 -15 16 -8 0 -15 8 -15 17 0 9 -3 13 -6 10
-4 -4 -15 3 -25 14 -9 11 -20 20 -23 20 -3 -1 -6 2 -5 5 1 11 -36 32 -46 26
-5 -3 -1 5 10 19 16 19 16 21 2 10 -16 -12 -21 -12 -45 6 -15 12 -26 26 -24
33 1 6 -2 9 -8 5 -5 -3 -10 -1 -10 4 0 6 -6 11 -14 11 -8 0 -16 7 -20 15 -3 8
-13 15 -21 15 -9 0 -13 5 -10 11 4 6 -2 13 -14 16 -11 3 -19 9 -16 13 3 4 -5
10 -16 13 -13 4 -18 10 -13 18 4 8 3 10 -4 5 -7 -4 -12 -2 -12 3 0 6 -7 11
-15 11 -8 0 -14 5 -13 12 2 7 -4 12 -12 13 -8 1 -14 6 -12 13 2 11 -11 16 -30
13 -5 0 -8 5 -8 13 0 7 -8 20 -17 27 -14 12 -16 12 -8 0 5 -10 4 -12 -3 -7 -7
4 -12 14 -12 22 0 8 -3 13 -7 13 -20 -3 -34 2 -28 11 3 5 -6 12 -21 16 -16 4
-22 9 -14 14 8 5 2 10 -14 14 -15 4 -24 11 -21 16 3 5 -4 11 -15 15 -11 3 -20
11 -20 16 0 5 -6 9 -14 9 -8 0 -18 5 -22 12 -5 7 -3 8 7 3 12 -8 12 -6 0 8 -7
9 -17 14 -22 11 -5 -3 -9 2 -9 11 0 9 -4 14 -9 10 -5 -3 -12 -1 -16 5 -14 22
-26 8 -22 -25z"/>
<path d="M1881 1681 c-18 -11 -16 -171 2 -183 9 -6 8 -8 -3 -9 -9 0 -7 -4 8
-11 12 -6 22 -17 22 -25 0 -8 5 -11 10 -8 6 3 10 1 10 -5 0 -6 5 -8 12 -4 6 4
8 3 5 -3 -4 -6 5 -19 19 -29 15 -11 35 -28 45 -38 12 -12 19 -15 19 -7 0 7 5
9 10 6 6 -3 10 -1 10 5 0 6 6 18 14 26 11 11 16 11 19 1 5 -11 11 18 8 36 -1
5 2 6 6 4 5 -3 17 1 27 9 17 12 17 14 3 20 -10 3 -17 13 -17 20 0 8 -7 17 -15
21 -25 9 -85 66 -85 80 0 7 -6 10 -16 6 -10 -4 -17 1 -21 16 -3 11 -9 18 -14
15 -5 -3 -9 2 -9 11 0 9 -4 13 -10 10 -5 -3 -10 -1 -10 5 0 6 -4 8 -10 5 -5
-3 -10 1 -10 9 0 19 -13 27 -29 17z"/>
<path d="M1173 1143 c-7 -3 -13 -11 -13 -19 0 -9 -4 -12 -10 -9 -5 3 -10 1
-10 -5 0 -6 -4 -8 -10 -5 -6 4 -7 -1 -3 -11 5 -13 3 -16 -10 -11 -9 3 -19 2
-22 -3 -3 -4 1 -11 7 -13 12 -5 -16 -11 -34 -8 -5 0 -8 -8 -8 -19 0 -13 -5
-18 -15 -14 -11 5 -13 2 -8 -12 4 -12 3 -15 -5 -10 -7 4 -12 2 -12 -3 0 -6 -6
-10 -12 -8 -7 1 -12 -4 -11 -10 3 -12 -10 -18 -31 -14 -5 1 -6 -5 -3 -14 5
-10 0 -15 -14 -15 -11 0 -24 -10 -29 -22 -5 -13 -9 -20 -9 -15 -1 4 -10 -2
-21 -13 -12 -12 -24 -19 -28 -16 -9 5 -8 -216 2 -232 7 -12 36 -5 36 10 0 5
-5 6 -12 2 -7 -4 -8 -3 -4 4 4 7 16 12 27 12 11 0 17 4 14 10 -3 5 6 12 20 16
13 3 23 10 20 14 -3 5 4 11 15 15 11 3 19 11 17 18 -2 10 2 12 34 16 6 0 9 8
5 16 -4 11 1 15 19 15 15 0 24 5 22 13 -1 6 4 11 11 10 6 -2 12 3 12 11 0 14
36 32 54 27 5 -1 3 6 -5 15 -8 11 -9 15 -2 11 7 -5 21 1 33 13 11 11 25 20 30
20 6 0 10 7 10 15 0 8 3 14 8 14 19 -3 32 2 32 12 0 15 40 50 50 44 4 -3 10 6
12 20 3 13 2 22 -2 20 -11 -7 -21 25 -13 38 4 7 -1 6 -10 -2 -15 -12 -21 -9
-18 12 0 4 -8 7 -20 7 -11 0 -18 4 -15 8 2 4 1 14 -5 22 -6 10 -9 11 -9 3 0
-7 -4 -13 -10 -13 -5 0 -9 3 -9 8 4 27 -8 35 -38 25z"/>
</g>
</svg>
